<svg xmlns="http://www.w3.org/2000/svg" xml:space="preserve" viewBox="0 0 213.33333 213.33332"><defs><clipPath id="a" clipPathUnits="userSpaceOnUse"><path d="M0 600h600V0H0Z"/></clipPath></defs><g clip-path="url(#a)" transform="matrix(1.3333333 0 0 -1.3333333 -293.33333 506.66645)"><path fill="#33a0ff" d="M300 362.4287c-44.183 0-80-35.817-80-80 0-15.254 4.271-29.509 11.679-41.639l20.9 22.191 105.783-.661-.766-35.407c13.871 14.387 22.404 33.954 22.404 55.516 0 44.183-35.817 80-80 80"/><path fill="#3dcc8e" d="M263.8363 339.6274c-3.899.239-6.887 3.608-6.66 7.511l.529 8.547c.232 3.739 3.35 6.669 7.097 6.669.14 0 .281-.004.422-.013l8.542-.529c1.89-.115 3.627-.962 4.885-2.386 1.26-1.424 1.888-3.256 1.767-5.156l-.524-8.514c-.031-.492-.13-.882-.191-1.095l-.304-1.487-5.621-4.162Z"/><path fill="#282828" d="M264.8025 366.6468c-6.01 0-11.009-4.698-11.381-10.696l-.529-8.532-.001-.016-.001-.015c-.364-6.259 4.43-11.662 10.686-12.045l8.375-.518 3.123-.193 2.515 1.862 3.042 2.251 2.643 1.957.607 2.967c.12.455.25 1.068.297 1.818l.524 8.522c.192 3.045-.817 5.98-2.839 8.266-2.013 2.278-4.8 3.638-7.843 3.823l-8.518.528h-.012l-.013.001c-.224.013-.451.02-.675.02m6.378-18.621.314 5.075-5.076.314-.315-5.076 5.077-.313m-6.378 10.036c.056 0 .113-.002.17-.005l8.528-.529c.747-.045 1.436-.38 1.933-.943.5-.565.749-1.29.701-2.041l-.525-8.524c-.008-.132-.061-.248-.086-.374l-3.042-2.252-8.38.518c-1.546.095-2.73 1.43-2.64 2.977l.529 8.531c.092 1.489 1.327 2.642 2.812 2.642"/><path fill="#fff" d="M300 320.9623c-33.402 0-60.48-27.078-60.48-60.48 0-12.421 3.746-23.965 10.167-33.569h103.055c5.424 9.907 7.738 21.637 7.738 33.569 0 30.914-27.078 60.48-60.48 60.48"/><path fill="#282827" d="M299.9999 325.255c-35.716 0-64.773-29.057-64.773-64.773 0-12.28 3.436-23.774 9.396-33.569h10.347c-7.005 9.372-11.157 20.995-11.157 33.569 0 30.982 25.205 56.188 56.187 56.188 14.716 0 28.811-6.161 39.688-17.348 10.486-10.783 16.5-24.94 16.5-38.84 0-9.517-1.572-22.45-8.405-33.569h9.799c4.729 9.519 7.191 20.9 7.191 33.569 0 16.116-6.899 32.454-18.929 44.826-12.508 12.863-28.789 19.947-45.844 19.947"/><path fill="#282827" d="M287.7891 242.9254c0-3.207-2.599-5.806-5.806-5.806s-5.806 2.599-5.806 5.806 2.599 5.806 5.806 5.806 5.806-2.599 5.806-5.806M323.8228 242.9254c0-3.207-2.599-5.806-5.806-5.806s-5.806 2.599-5.806 5.806 2.599 5.806 5.806 5.806 5.806-2.599 5.806-5.806"/><path fill="#ff6f21" d="m234.0117 245.2287 32.228 34.18-7.757-24.319c25.161 18.31 51.575 15.415 70.174 9.953 19.741-5.796 33.562 11.639 20.032 30.238-6.429 8.839-15.248 16.178-25.265 20.629-26.273 11.671-52.688 4.866-70.507-13.134-18.876-19.068-18.905-40.217-18.905-57.547"/><path fill="#282827" d="M296.9716 317.3886c-3.741 0-7.456-.373-11.107-1.124-11.135-2.29-21.473-7.999-29.897-16.509-13.993-14.135-16.901-29.306-17.505-43.549l37.603 39.881-9.955-31.208c18.708 9.781 40.099 11.228 63.755 4.282 7.528-2.21 14.351-.535 17.808 4.371 3.551 5.041 2.633 12.227-2.456 19.223-6.081 8.36-14.44 15.189-23.537 19.231-8.068 3.584-16.45 5.402-24.709 5.402m-67.252-82.97v10.81c0 17.917 0 40.215 20.146 60.567 9.62 9.717 21.47 16.245 34.269 18.878 13.474 2.772 27.662 1.098 41.032-4.841 10.453-4.644 20.04-12.467 26.994-22.026 7.243-9.958 8.213-21.154 2.531-29.218-5.555-7.885-16.247-10.892-27.245-7.664-25.364 7.448-47.718 4.317-66.438-9.306l-10.6-7.713 6.005 18.825z"/><path fill="#ff6f21" d="M315.4395 324.1835c-3.821-9.956-14.901-15.515-25.167-12.625-11.566 3.257-17.673 12.552-16.207 24.342 1.459 11.725 9.382 22.005 18.515 34.677-7.502-15.969-1.129-17.465.887-17.385 1.992.079 4.9-.261 9.039-1.634 11.277-3.743 17.238-16.157 12.933-27.375"/><path fill="#282827" d="M285.8294 353.465c-3.962-6.212-6.744-11.986-7.504-18.094-1.203-9.673 3.698-17.03 13.111-19.68 8.172-2.301 16.954 2.105 19.996 10.03 1.649 4.298 1.477 8.947-.484 13.091-1.963 4.148-5.441 7.228-9.794 8.672-3.82 1.268-6.198 1.469-7.516 1.419-2.959-.116-5.69 1.262-7.3 3.69-.186.28-.356.57-.509.872m9.977-46.963c-2.226 0-4.475.299-6.697.925-6.666 1.877-11.993 5.587-15.404 10.729-3.401 5.126-4.749 11.445-3.9 18.275 1.5 12.057 8.931 22.329 17.535 34.223.58.802 1.166 1.612 1.758 2.433l7.367-4.335c-3.636-7.741-3.219-10.607-3.028-11.261 2.925.089 6.431-.534 10.421-1.858 6.601-2.191 11.875-6.86 14.85-13.149 2.974-6.284 3.236-13.33.739-19.839-3.788-9.869-13.446-16.143-23.641-16.143"/><path fill="#3dcc8e" d="M304.5916 286.1613c-1.503 0-2.911.668-3.861 1.832l-2.888 3.537c-1.674 2.05-1.434 5.049.501 6.811-.625.306-1.184.747-1.638 1.303l-.659.807c-1.734 2.123-1.417 5.26.705 6.993l.415.339-4.23 5.192c-1.881 2.304-1.536 5.713.77 7.597.967.788 2.179 1.219 3.417 1.219 1.626 0 3.151-.722 4.182-1.982l18.043-22.207c1.878-2.301 1.533-5.71-.773-7.594-.636-.52-1.398-.894-2.2-1.079-.398-.092-.808-.138-1.217-.138-1.406 0-2.735.539-3.736 1.498l-3.681-3.005c-.887-.724-2.006-1.123-3.15-1.123"/><path fill="#282828" d="M304.0229 322.0345c-1.701 2.078-4.216 3.269-6.899 3.269-2.044 0-4.044-.712-5.631-2.004-3.814-3.116-4.382-8.741-1.275-12.547l2.35-2.885c-1.726-2.968-1.539-6.824.758-9.637l.442-.542c-1.039-2.741-.63-5.95 1.354-8.379l2.888-3.538c1.619-1.984 4.018-3.122 6.581-3.122 1.952 0 3.86.679 5.372 1.914l1.73 1.412c1.082-.455 2.257-.697 3.466-.697.674 0 1.349.077 2.006.229 1.324.305 2.58.921 3.633 1.781 3.805 3.109 4.373 8.734 1.267 12.54l-18.025 22.185Zm-6.899-3.755c.547 0 1.09-.238 1.464-.696l18.035-22.196c.66-.809.539-1.999-.269-2.659-.233-.19-.496-.314-.769-.377-.14-.033-.283-.049-.426-.049-.548 0-1.091.237-1.465.695l-1.796 2.213-6.377-5.205c-.273-.224-.602-.332-.93-.332-.426 0-.849.185-1.14.541l-2.888 3.537c-.508.622-.415 1.538.207 2.046l6.408 5.231-2.618 3.228-3.17-2.59c-.26-.211-.572-.314-.882-.314-.404 0-.805.175-1.081.512l-.66.809c-.509.623-.417 1.541.206 2.05l3.133 2.558-6.447 7.913c-.66.808-.539 1.998.269 2.658.353.287.776.427 1.196.427"/></g></svg>