<?xml version="1.0" encoding="UTF-8" standalone="no"?>
<!-- Created with Inkscape (http://www.inkscape.org/) -->

<svg
   xmlns:dc="http://purl.org/dc/elements/1.1/"
   xmlns:cc="http://creativecommons.org/ns#"
   xmlns:rdf="http://www.w3.org/1999/02/22-rdf-syntax-ns#"
   xmlns:svg="http://www.w3.org/2000/svg"
   xmlns="http://www.w3.org/2000/svg"
   xmlns:sodipodi="http://sodipodi.sourceforge.net/DTD/sodipodi-0.dtd"
   xmlns:inkscape="http://www.inkscape.org/namespaces/inkscape"
   width="157.7036mm"
   height="150.01718mm"
   viewBox="0 0 558.79227 531.55694"
   id="svg2"
   version="1.1"
   inkscape:version="0.91 r13725"
   sodipodi:docname="Flintstones.svg"
   inkscape:export-filename="D:\Users\Campos\Desktop\Flintstones.png"
   inkscape:export-xdpi="20"
   inkscape:export-ydpi="20">
  <defs
     id="defs4" />
  <sodipodi:namedview
     id="base"
     pagecolor="#ffffff"
     bordercolor="#666666"
     borderopacity="1.0"
     inkscape:pageopacity="0.0"
     inkscape:pageshadow="2"
     inkscape:zoom="0.49497475"
     inkscape:cx="571.4799"
     inkscape:cy="490.87383"
     inkscape:document-units="px"
     inkscape:current-layer="layer9"
     showgrid="false"
     inkscape:window-width="1366"
     inkscape:window-height="705"
     inkscape:window-x="-8"
     inkscape:window-y="-8"
     inkscape:window-maximized="1"
     fit-margin-top="0"
     fit-margin-left="0"
     fit-margin-right="0"
     fit-margin-bottom="0" />
  <metadata
     id="metadata7">
    <rdf:RDF>
      <cc:Work
         rdf:about="">
        <dc:format>image/svg+xml</dc:format>
        <dc:type
           rdf:resource="http://purl.org/dc/dcmitype/StillImage" />
        <dc:title></dc:title>
        <cc:license
           rdf:resource="" />
      </cc:Work>
    </rdf:RDF>
  </metadata>
  <g
     inkscape:groupmode="layer"
     id="layer9"
     inkscape:label="Layer 1">
    <g
       transform="translate(-82.225168,-179.28109)"
       style="display:inline"
       id="g4879">
      <path
         transform="matrix(2.8942514,-0.50399486,0.50399486,2.8942514,-3606.8007,-408.50994)"
         inkscape:transform-center-y="-8.8099978"
         inkscape:transform-center-x="0.1322106"
         d="m 1323.2535,617.17547 -51.3567,-47.547 -64.4418,27.30354 29.3498,-63.53597 -45.8808,-52.85054 69.4959,8.27961 36.0859,-59.96697 13.601,68.65305 68.1831,15.78891 -61.09,34.15031 z"
         inkscape:randomized="0"
         inkscape:rounded="0"
         inkscape:flatsided="false"
         sodipodi:arg2="1.7438636"
         sodipodi:arg1="1.1155451"
         sodipodi:r2="42.907204"
         sodipodi:r1="99.997955"
         sodipodi:cy="527.36224"
         sodipodi:cx="1279.2856"
         sodipodi:sides="5"
         id="path4327"
         style="display:inline;fill:#fba404;fill-opacity:1;stroke:none;stroke-width:1;stroke-linecap:round;stroke-linejoin:miter;stroke-miterlimit:4;stroke-dasharray:none;stroke-opacity:1"
         sodipodi:type="star" />
      <g
         transform="matrix(1.5322847,0,0,1.5322847,-176.38838,17.127632)"
         id="g4424">
        <g
           transform="matrix(2.2527709,0,0,2.2527709,-270.31515,-378.0956)"
           id="g4443">
          <path
             sodipodi:nodetypes="ssssssscsccccsscsscsccccccsscccsssscsssscccscscccsscscccsssccscsscccccsccss"
             inkscape:connector-curvature="0"
             id="path4394"
             transform="matrix(0.28969667,0,0,0.28969667,155.87426,166.97091)"
             d="m 502.44336,217.65039 c -2.34141,0 -1.8557,3.45918 1.21875,8.66992 1.51974,2.57574 3.47871,8.23964 4.35156,12.58594 2.13569,10.6343 0.62522,12.08406 -7.58008,7.27539 -13.32377,-7.80816 -31.22644,-16.13608 -43.74804,-20.34766 -15.45424,-5.19799 -33.54997,-6.77345 -47.28907,-4.11718 -15.42205,2.98166 -19.83246,8.54367 -8.4375,10.63867 3.54717,0.65215 6.64136,1.80641 6.87696,2.56641 0.23542,0.75992 -3.40917,3.82983 -8.09961,6.82226 -8.81641,5.62479 -27.85208,22.83046 -30.28321,27.37305 -0.75957,1.4196 -0.99284,4.34499 -0.51953,6.5 l 0.85938,3.91797 7.17773,-4.87891 c 8.56336,-5.82256 18.48205,-10.46246 20.15625,-9.42773 1.78971,1.10611 3.33999,15.18067 3.03516,27.54492 -0.23602,9.57025 0.0723,11.11247 2.56641,12.85937 1.55866,1.09178 2.83398,2.88176 2.83398,3.97852 0,2.50615 0.0493,2.50965 -7.89453,-0.57031 -3.63784,-1.41049 -8.94223,-2.92406 -11.78906,-3.36524 -4.49321,-0.69624 -5.79759,-0.2157 -9.89063,3.64453 -11.65006,10.98738 -11.95508,37.67122 -0.57226,50.13867 l 2.6914,2.94922 -11.63867,6.34375 c -18.65659,10.16971 -18.30828,9.71694 -17.89063,23.22266 l 0.35547,11.51367 -3.40039,-7.2539 c -1.8707,-3.98958 -4.24304,-7.25391 -5.27148,-7.25391 -2.06109,0 -13.45703,20.37033 -13.45703,24.05469 0,1.26994 1.17472,4.61605 2.60937,7.43554 l 2.60742,5.125 -10.26562,0.3086 c -12.00272,0.36004 -49.73955,8.43178 -67.20313,14.375 -26.15289,8.90033 -35.05048,13.38838 -41.26953,20.8164 -4.84967,5.79236 -5.8886,8.11145 -6.40039,14.28321 -1.40074,16.89093 10.02918,38.39484 26.38477,49.63671 7.08278,4.86826 9.12412,5.5693 17.60937,6.04883 6.81544,0.38505 13.2232,-0.35357 22.09961,-2.54687 6.87509,-1.69879 12.85317,-2.73473 13.28516,-2.30274 0.43217,0.43217 -0.28077,3.77292 -1.58399,7.42383 -3.57708,10.02111 -4.30594,37.28702 -1.5625,58.45117 2.50029,19.28812 8.82554,42.69479 17.45118,66.32813 49.47773,-31.9439 109.00355,-70.35515 111.15625,-71.70508 l 2.33789,-1.4668 85.29297,55.17383 c 19.08846,12.34752 34.82563,22.53806 49.13867,31.81055 6.67832,-16.30569 5.40953,-28.45289 -1.30274,-50.43359 -2.5527,-8.35927 -5.04114,-17.39617 -5.52929,-20.08204 l -0.88672,-4.88281 26.85547,-23.9043 c 20.95101,-18.64754 27.9743,-25.77595 31.94336,-32.42187 6.22117,-10.417 5.98584,-12.56881 -3.00586,-27.47266 -3.60118,-5.9689 -7.95767,-13.25257 -9.68164,-16.1875 -1.72398,-2.93482 -13.79714,-16.43548 -26.82813,-30.00195 -13.03091,-13.5664 -26.12948,-27.23305 -29.10937,-30.36914 l -5.41797,-5.70117 7.11132,-11.46875 c 12.42899,-20.0397 11.02827,-23.99982 -6.05273,-17.10742 -2.41018,0.97256 -2.55445,0.59914 -1.68164,-4.34961 3.20603,-18.17819 3.80534,-34.75249 3.0918,-85.55078 -0.1213,-8.63171 0.25456,-10.96746 1.71679,-10.66016 3.44445,0.72453 5.90726,-2.64623 4.98828,-6.83008 -0.96535,-4.39536 -0.1244,-4.71593 4.88282,-1.85352 1.89984,1.08606 5.77329,1.99872 8.60547,2.02344 8.19865,0.078 9.90141,-3.79489 8.95898,-20.36718 -1.29138,-22.70675 -5.71744,-31.93622 -16.30469,-33.99805 -5.13967,-1.00096 -7.41911,-0.70204 -12.78125,1.66992 l -6.52734,2.88672 L 524,240.95312 c 1.35387,-2.31848 4.84832,-6.38313 7.76562,-9.03124 6.05202,-5.49325 5.87961,-7.73936 -0.25781,-3.36915 -2.25084,1.60282 -4.89396,2.91602 -5.875,2.91602 -0.98093,0 -3.45121,1.59518 -5.48828,3.54687 l -3.70312,3.54883 -0.93946,-5.00781 c -0.93646,-4.99164 -9.89689,-15.90625 -13.05859,-15.90625 z"
             style="display:inline;fill:#000000" />
          <path
             sodipodi:nodetypes="cscccssccssscccccsscccccsssccccssssscssccscsscccsccccccccsccssccccscccc"
             inkscape:connector-curvature="0"
             id="path4302"
             transform="matrix(0.28969667,0,0,0.28969667,155.87426,166.97091)"
             d="m 504.14453,454.20508 c -0.94192,-0.12534 -8.77175,4.90543 -18.21094,11.73437 -17.14586,12.40449 -23.86847,16.07301 -25.83984,14.10157 -0.45427,-0.4542 0.46878,-3.81637 2.05078,-7.47071 1.58166,-3.65437 2.6656,-6.85324 2.41016,-7.10937 -0.25613,-0.2562 -4.87402,1.46934 -10.26172,3.83398 -15.10787,6.6309 -33.58001,13.4407 -41.64258,15.35156 -9.25071,2.19244 -14.30469,6.05851 -14.30469,10.96485 -0.0142,6.76324 -2.69718,13.58079 -6.94922,17.65429 -3.48709,3.34084 -4.18945,5.10314 -4.18945,10.5293 0,7.52467 -3.19206,12.53666 -9.70508,15.23438 -2.32484,0.96297 -4.22656,2.22517 -4.22656,2.80664 0,0.58143 2.7469,8.81419 6.10352,18.29297 6.08488,17.18393 9.85904,30.77768 11.24023,40.19336 4.70132,-3.02854 20.69732,-13.35466 21.10352,-13.60938 l 2.33789,-1.4668 40.38086,26.1211 c 1.77382,-1.07004 3.61578,-2.20397 5.46289,-3.37891 7.8092,-4.96737 15.0233,-9.03125 16.03125,-9.03125 2.83296,0 2.26997,11.2639 -1,20.00391 -0.52485,1.4029 -1.17138,2.89775 -1.89453,4.4375 l 26.3125,17.02148 c 17.08264,11.05004 30.5463,19.77112 43.9746,28.46875 7.05745,-16.46701 4.50234,-27.52892 -7.93554,-67.03711 -8.95834,-28.45435 -8.55201,-27.53314 -10.78711,-24.47656 -1.5064,2.06002 -3.08743,2.36672 -8.74024,1.69727 -9.06741,-1.07392 -18.59179,-4.95924 -18.59179,-7.58399 0,-1.14861 2.94495,-8.64981 6.54492,-16.66992 4.97624,-11.08729 6.21025,-15.14239 5.14258,-16.91797 -1.6286,-2.70938 -24.1512,-18.2752 -26.51367,-18.32422 -0.87471,-0.0181 -1.984,1.53353 -2.46485,3.44922 -0.81637,3.25289 -3.60742,4.98925 -3.60742,2.24414 0,-8.75502 8.42107,-38.94521 14.9082,-53.44531 3.82538,-8.5507 5.99024,-10.18626 5.99024,-4.52734 0,1.91572 0.5125,3.48242 1.13867,3.48242 1.11668,0 5.82812,-13.32087 5.82812,-16.47852 0,-0.0552 -0.0329,-0.0873 -0.0957,-0.0957 z m -48.28125,40.38672 c 0.70977,0.038 1.00586,0.4931 1.00586,1.30468 0,2.15153 -12.95278,30.03381 -18.75195,40.36524 -2.79569,4.98079 -6.10852,9.83904 -7.36328,10.79687 -1.25442,0.95787 -2.74662,1.74219 -3.31446,1.74219 -1.53816,0 -5.90023,-6.58533 -10.73633,-16.20898 -5.0791,-10.10692 -7.05289,-7.38126 18.39649,-25.41602 12.77888,-9.05595 18.63435,-12.69809 20.76367,-12.58398 z m -151.55273,22.13086 -4.45313,2.73632 c -9.822,6.03718 -12.88735,17.32396 -12.92187,47.45313 -0.0207,22.61586 1.04012,30.8962 7.05468,55.0332 3.08839,12.39438 6.33515,23.43248 10.125,34.18164 19.23201,-12.41585 22.11198,-14.27571 41.76368,-26.95507 -3.54388,-8.69788 -6.78612,-18.87302 -9.47657,-29.84376 l -3.83789,-15.65234 -2.98047,4.375 c -1.6393,2.40617 -4.06085,5.04818 -5.38086,5.86914 -4.3542,2.70828 -5.75,-1.02027 -6.58398,-17.58984 -0.69659,-13.83237 -1.24194,-16.44192 -4.61133,-22.07813 -3.41426,-5.71063 -3.82031,-7.73736 -3.82031,-19.0039 0,-9.95469 -0.51503,-13.2318 -2.43945,-15.56641 z M 290.73242,582.25 c 2.40934,0.18887 7.61511,5.84578 17.22852,17.45898 7.95418,9.60857 14.6568,18.03659 14.89844,18.72852 0.24059,0.69193 -2.84977,2.23404 -6.86915,3.42773 -9.72741,2.88865 -14.59729,2.73666 -17.89453,-0.56054 -3.23096,-3.23131 -6.45111,-13.72754 -8.32031,-27.1211 -1.1176,-8.009 -1.16885,-12.10024 0.95703,-11.93359 z m 84.63281,26.05273 -0.1875,1.97657 c 0.48126,-0.31031 0.96744,-0.62397 1.43555,-0.92578 z"
             style="fill:#d36401;fill-opacity:1;stroke:none;stroke-width:1;stroke-linecap:round;stroke-linejoin:miter;stroke-miterlimit:4;stroke-dasharray:none;stroke-opacity:1" />
          <path
             inkscape:connector-curvature="0"
             id="path4304"
             d="m 254.82116,302.18181 c -1.1695,-0.88177 -2.4863,-1.71744 -2.9262,-1.85704 -0.4398,-0.1396 -0.7997,-0.43893 -0.7997,-0.66516 0,-0.57089 2.4816,-3.97404 2.8978,-3.97404 0.5808,0 5.2061,6.6003 5.0827,7.25277 -0.2319,1.22521 -2.0563,0.90079 -4.2546,-0.75653 z"
             style="fill:#d36401;fill-opacity:1;stroke:none;stroke-width:1;stroke-linecap:round;stroke-linejoin:miter;stroke-miterlimit:4;stroke-dasharray:none;stroke-opacity:1" />
          <path
             inkscape:connector-curvature="0"
             id="path4306"
             d="m 276.22876,304.77471 c 6.239,-4.76387 19.7727,-13.3741 25.5626,-16.26305 5.9763,-2.98203 8.6353,-4.0627 8.6353,-3.50954 0,1.43767 -4.0962,6.63446 -8.814,11.18198 -3.0269,2.91773 -10.0809,8.17881 -10.4627,7.80339 -0.058,-0.0568 0.2061,-0.94251 0.5863,-1.96826 0.3801,-1.02576 0.5731,-1.98309 0.4288,-2.12741 -0.1444,-0.14432 -2.9509,0.92835 -6.2369,2.38371 -4.9739,2.20297 -9.87,3.90404 -11.2368,3.90404 -0.1664,0 0.5255,-0.63218 1.5374,-1.40486 z"
             style="fill:#000000;fill-opacity:1;stroke:none;stroke-width:1;stroke-linecap:round;stroke-linejoin:miter;stroke-miterlimit:4;stroke-dasharray:none;stroke-opacity:1" />
          <path
             inkscape:connector-curvature="0"
             id="path4308"
             d="m 258.79976,299.21065 c -2.2074,-2.92367 -5.4808,-8.40842 -6.3027,-10.56043 -0.6375,-1.66941 -0.63,-1.80693 0.186,-3.40638 0.4676,-0.9167 1.0029,-1.66673 1.1894,-1.66673 0.7391,0 2.9999,5.12114 4.915,11.13358 1.1096,3.48345 1.9378,6.41314 1.8406,6.5104 -0.097,0.0973 -0.92,-0.80742 -1.8283,-2.01044 z"
             style="fill:#000000;fill-opacity:1;stroke:none;stroke-width:1;stroke-linecap:round;stroke-linejoin:miter;stroke-miterlimit:4;stroke-dasharray:none;stroke-opacity:1" />
          <path
             inkscape:connector-curvature="0"
             id="path4310"
             d="m 266.63366,308.11667 -2.8261,-0.37636 0.143,-1.79727 c 0.094,-1.18508 -0.081,-2.1383 -0.5131,-2.79845 -0.6478,-0.98874 -0.641,-1.00117 0.549,-1.00117 1.7406,0 5.5667,1.52902 6.9751,2.78744 l 1.2103,1.0814 -1.0892,1.2945 c -0.5991,0.71198 -1.2093,1.27015 -1.3561,1.24039 -0.1468,-0.0298 -1.5385,-0.22347 -3.0929,-0.43048 z"
             style="fill:#000000;fill-opacity:1;stroke:none;stroke-width:1;stroke-linecap:round;stroke-linejoin:miter;stroke-miterlimit:4;stroke-dasharray:none;stroke-opacity:1" />
          <path
             inkscape:connector-curvature="0"
             id="path4312"
             transform="matrix(0.28969667,0,0,0.28969667,155.87426,166.97091)"
             d="m 338.50391,530.61328 -0.66016,3.17188 c -0.36245,1.74486 -1.03722,6.66268 -1.49805,10.92773 -1.07284,9.92832 -4.95104,16.43243 -10.45508,17.5332 l -4.17773,0.83594 0.0352,12.01563 c 0.0283,15.98834 1.44617,18.0101 6.13867,8.75 4.38079,-8.64539 7.09091,-9.20675 8.28906,-1.71485 1.68517,10.53935 7.9034,29.44215 13.97266,44.28516 8.38715,-5.41107 11.62668,-7.49746 18.55078,-11.96289 -0.006,-0.14447 -0.007,-0.27865 -0.0137,-0.42383 -0.43529,-9.82355 -0.38735,-17.85937 0.10937,-17.85937 0.49673,0 4.50991,3.5674 8.91797,7.92968 0.98468,0.97438 1.94303,1.87587 2.85547,2.70117 1.55072,-0.99964 3.82321,-2.46692 5.17773,-3.33984 -2.19417,-11.23877 -7.46482,-32.17054 -11.23047,-43.45898 -5.18611,-15.54561 -7.27217,-18.12676 -16.58398,-20.50977 -4.17437,-1.06832 -10.25395,-3.50429 -13.50976,-5.41211 l -5.91797,-3.46875 z"
             style="fill:#000000;fill-opacity:1;stroke:none;stroke-width:1;stroke-linecap:round;stroke-linejoin:miter;stroke-miterlimit:4;stroke-dasharray:none;stroke-opacity:1" />
          <path
             inkscape:connector-curvature="0"
             id="path4270"
             d="m 294.84326,290.54414 c 0.5759,-3.40976 0.7237,-16.86253 0.2107,-19.16451 -0.4658,-2.09027 -1.6838,-3.30354 -4.3493,-4.33226 -2.2717,-0.87671 -4.9392,-1.45568 -7.4223,-1.61099 -1.6232,-0.10152 -1.6961,-0.0654 -1.8187,0.90095 -0.301,2.37174 -4.8724,4.84304 -10.2706,5.55231 -4.1117,0.54022 -6.1757,-0.88406 -7.2532,-5.00505 -0.7472,-2.85828 -0.1159,-8.2237 1.1025,-9.36935 0.3127,-0.29406 0.5212,-0.33997 1.7356,-0.3821 1.9402,-0.0673 3.9694,0.41818 8.0659,1.92978 1.8167,0.6704 3.5413,1.25174 3.8323,1.29185 l 0.5291,0.0729 -0.08,-0.49495 c -0.06,-0.37203 0.036,-0.75747 0.3898,-1.552 0.456,-1.02547 0.4718,-1.12524 0.5272,-3.34024 0.068,-2.71662 -0.1427,-3.9876 -0.8577,-5.17736 -0.5466,-0.9097 -1.6598,-1.9647 -2.1774,-2.06364 -0.5458,-0.10434 -1.224,0.33227 -1.812,1.16667 l -0.5265,0.74693 -0.083,-0.47569 c -0.1076,-0.61269 -0.7902,-6.06174 -0.7902,-6.30753 0,-0.19555 2.1677,-0.77107 4.4281,-1.17568 1.8831,-0.33708 9.4752,-0.43082 12.1261,-0.14973 3.0563,0.32407 6.22,1.06684 8.7745,2.06001 l 0.9983,0.38815 -1.095,0.0993 c -2.812,0.25517 -4.2026,2.10093 -4.4783,5.9442 -0.1047,1.46108 0.1937,3.68534 0.6649,4.95435 0.3971,1.06964 1.2758,1.9936 2.0306,2.1352 1.4022,0.26305 3.1356,-1.15163 5.2944,-4.32089 l 0.8988,-1.31946 0.075,1.67621 c 0.078,1.75728 0.2358,2.4098 0.6174,2.55623 0.3622,0.13902 1.0062,-0.62339 1.7622,-2.08648 0.377,-0.72954 0.7195,-1.27025 0.7611,-1.20158 0.1067,0.17616 0.5018,2.59417 0.6733,4.12043 0.6529,5.81094 0.4045,17.16299 -0.5012,22.90329 -0.3231,2.04783 -0.9274,5.05319 -1.0382,5.16344 -0.054,0.0537 -2.5062,1.45763 -5.4494,3.11987 -2.9432,1.66224 -5.3985,3.05028 -5.4561,3.08455 -0.058,0.0343 -0.074,-0.11749 -0.038,-0.33723 z m 8.6115,-25.37566 c 1.7558,-1.92107 2.1994,-4.35547 0.9285,-5.09503 -0.8484,-0.49372 -3.5323,-0.86891 -4.2488,-0.59397 -0.257,0.0986 -0.3001,0.42139 -0.075,0.56057 0.083,0.0513 0.7987,0.14949 1.5906,0.21827 1.8167,0.1578 2.3699,0.33324 2.484,0.78762 0.187,0.74525 -0.1504,1.64212 -1.3084,3.4778 -0.5108,0.80977 -0.6376,1.43331 -0.2914,1.43331 0.1099,0 0.524,-0.35486 0.9204,-0.78857 z m -12.999,-4.52517 c 1.1381,-0.53182 1.8816,-1.77286 1.8868,-3.14964 0,-0.45592 -0.05,-0.79632 -0.1142,-0.75644 -0.064,0.0399 -0.2914,0.51617 -0.5041,1.05844 -0.49,1.24888 -1.2143,2.11335 -1.9329,2.30684 -0.5998,0.1615 -1.0946,0.61285 -0.9422,0.85941 0.1226,0.1985 0.7782,0.0685 1.6066,-0.31861 z m -3.936,-1.3782 c 1.2414,-0.78723 1.9281,-2.769 1.7855,-5.15213 -0.1813,-3.0294 -1.6139,-5.96448 -3.3023,-6.76565 -0.7006,-0.33246 -1.6519,-0.29129 -2.2272,0.0964 -1.218,0.82084 -1.8598,2.5082 -1.9562,5.1427 -0.1045,2.85812 0.3357,4.41905 1.6185,5.73894 1.2986,1.33613 2.8819,1.70068 4.0817,0.93978 z m 3.0259,-13.08218 c -0.01,-0.42603 -0.1453,-0.96497 -0.3343,-1.33552 -0.9101,-1.78392 -3.1629,-3.18955 -4.0603,-2.53339 -0.3238,0.2368 -0.2423,0.72024 0.1326,0.78695 0.3868,0.0688 1.3231,0.99161 2.5114,2.47525 1.0105,1.2616 1.1765,1.40602 1.5539,1.35176 0.1604,-0.0231 0.2097,-0.20976 0.1967,-0.74505 z m -13.4383,-0.45355 c 1.2316,-1.1855 1.8517,-2.06192 1.8774,-2.65337 0.019,-0.43651 0,-0.44975 -0.5511,-0.43092 -0.4974,0.0169 -0.6566,0.11538 -1.2404,0.76718 -0.7315,0.81675 -1.6851,2.50312 -1.6851,2.98013 0,0.56831 0.5622,0.33525 1.5992,-0.66302 z"
             style="display:inline;fill:#e6bfb1;fill-opacity:1;stroke:none;stroke-width:1;stroke-linecap:round;stroke-linejoin:miter;stroke-miterlimit:4;stroke-dasharray:none;stroke-opacity:1" />
          <path
             inkscape:connector-curvature="0"
             id="path4272"
             d="m 249.45766,328.36605 c -1.1192,-0.19264 -1.8091,-0.82355 -2.5273,-2.3109 -0.8297,-1.71823 -0.8672,-2.21272 -0.3572,-4.7066 0.243,-1.18804 0.4417,-2.32964 0.4416,-2.53691 -1e-4,-0.20726 -0.2242,-0.68887 -0.4979,-1.07024 -0.9592,-1.33619 -1.0967,-1.71281 -1.2297,-3.36661 -0.069,-0.85212 -0.1917,-1.67484 -0.2738,-1.82827 -0.243,-0.45404 -0.5454,-0.33359 -0.6431,0.25616 -0.1453,0.87759 -0.3378,1.2467 -0.9673,1.85487 -0.8071,0.77973 -1.9679,1.49495 -3.8992,2.40241 -6.2144,2.91995 -9.7023,3.5806 -13.1806,2.49652 -2.9361,-0.91508 -5.5988,-3.63957 -7.6978,-7.87649 -1.2324,-2.48759 -1.4574,-3.36068 -1.5435,-5.98868 -0.089,-2.71353 0.092,-3.41672 1.1525,-4.4718 1.5653,-1.55781 4.3656,-2.92882 9.4733,-4.63805 7.7298,-2.58671 18.3277,-4.89171 23.1841,-5.04248 1.2807,-0.0398 1.4904,0.092 2.1826,1.37166 l 0.4218,0.77974 -0.9142,1.11904 c -2.0249,2.4787 -3.3392,3.93305 -3.8336,4.24227 -0.4897,0.30623 -0.6105,0.3195 -2.0192,0.22173 -2.4858,-0.17252 -14.4155,-0.1533 -15.6153,0.0252 -1.0772,0.16022 -1.6816,0.42892 -1.4607,0.64947 0.065,0.0653 3.0834,0.12291 6.7067,0.12807 6.7964,0.01 8.6732,0.11142 11.9044,0.64534 3.5645,0.58898 4.5066,1.08412 7.455,3.91807 3.2401,3.11438 4.5408,3.72508 9.4182,4.42202 3.7219,0.53185 4.4098,0.78882 4.905,1.83237 0.351,0.73973 0.2905,1.48128 -0.1892,2.31758 -0.4755,0.82905 -1.5498,1.8439 -2.29,2.16308 -1.1303,0.48746 -2.9723,0.21858 -7.2505,-1.0584 -1.2016,-0.35865 -2.2209,-0.6159 -2.2651,-0.57167 -0.164,0.16392 0.1,0.51831 0.6631,0.8911 0.3236,0.21416 1.8239,0.77137 3.3961,1.26136 3.0384,0.94689 4.1565,1.4619 4.6887,2.15973 0.6776,0.88839 0.3091,2.22845 -0.9322,3.38955 -0.8531,0.79796 -1.2964,0.88163 -4.0691,0.76801 -3.1603,-0.1295 -4.4261,-0.58384 -6.9783,-2.50475 -0.85,-0.63975 -1.6065,-1.16317 -1.6812,-1.16317 -0.2045,0 -0.2262,0.10429 -0.7562,3.63884 -0.922,6.14957 -1.0861,6.49672 -2.9209,6.18087 z"
             style="display:inline;fill:#e6bfb1;fill-opacity:1;stroke:none;stroke-width:1;stroke-linecap:round;stroke-linejoin:miter;stroke-miterlimit:4;stroke-dasharray:none;stroke-opacity:1" />
          <path
             inkscape:connector-curvature="0"
             id="path4297"
             d="m 311.65866,337.8084 c -0.1579,-0.25541 -0.5851,-1.39522 -0.9493,-2.53292 -1.5311,-4.78169 -2.4272,-7.44691 -3.0355,-9.02753 -0.3553,-0.92351 -0.6123,-1.71285 -0.571,-1.75412 0.041,-0.0413 1.2448,0.50564 2.6746,1.21533 1.4299,0.70969 2.7222,1.29034 2.8718,1.29034 0.8377,0 -0.2541,-0.87194 -4.1517,-3.31589 -3.647,-2.28678 -9.7673,-6.35215 -11.523,-7.65401 -1.0125,-0.75082 -1.1772,-0.93205 -1.1772,-1.29513 0,-0.85479 2.142,-7.62841 3.1789,-10.05257 0.3751,-0.87671 0.5068,-0.63964 0.5212,0.93801 0.013,1.38856 0.2594,3.17965 0.5257,3.81701 0.3534,0.84583 0.595,0.32159 1.0583,-2.29699 0.6779,-3.8309 1.732,-7.15334 3.2747,-10.32139 0.971,-1.99392 1.8398,-3.26279 2.4503,-3.57849 0.4125,-0.21332 0.4587,-0.20662 0.9871,0.14305 1.7683,1.17016 6.7485,5.85021 8.8109,8.27978 7.311,8.61249 9.9408,12.16997 12.2805,16.6124 l 1.0042,1.90688 -0.6222,1.23251 c -0.3423,0.67787 -0.9415,1.682 -1.3315,2.23139 -2.6275,3.70059 -9.3483,10.36871 -13.519,13.41306 -1.9107,1.39469 -2.2945,1.49896 -2.7578,0.74928 z"
             style="display:inline;fill:#e6bfb1;fill-opacity:1;stroke:none;stroke-width:1;stroke-linecap:round;stroke-linejoin:miter;stroke-miterlimit:4;stroke-dasharray:none;stroke-opacity:1" />
          <path
             inkscape:connector-curvature="0"
             id="path4314"
             d="m 259.39676,306.31747 -1.9908,-1.03536 1.7157,-0.78656 c 2.8607,-1.3114 4.1395,-0.6116 3.5047,1.91775 -0.3051,1.21558 -0.7326,1.2029 -3.2296,-0.0958 z"
             style="display:inline;fill:#e6bfb1;fill-opacity:1;stroke:none;stroke-width:1;stroke-linecap:round;stroke-linejoin:miter;stroke-miterlimit:4;stroke-dasharray:none;stroke-opacity:1" />
          <path
             inkscape:connector-curvature="0"
             id="path4300"
             d="m 270.84996,302.90911 c -1.7751,-0.91749 -4.206,-1.78643 -5.8165,-2.07912 l -2.7669,-0.50284 -1.3569,-4.03616 c -1.8305,-5.44505 -2.9529,-11.16017 -2.9529,-15.03552 0,-3.74923 -0.047,-3.68638 4.5929,-6.18356 3.1105,-1.67415 3.2736,-1.71366 7.4263,-1.79992 l 4.246,-0.0882 -2.1793,1.37536 c -1.1986,0.75645 -2.8793,1.58553 -3.7349,1.8424 -0.8555,0.25687 -1.6593,0.73752 -1.7862,1.06811 -0.326,0.84961 2.3306,3.03202 5.5323,4.54474 l 2.6484,1.2513 -1.3952,1.16474 c -0.7673,0.6406 -1.5427,1.16474 -1.7232,1.16474 -0.1804,0 -1.5903,-0.6357 -3.1332,-1.41266 -1.5428,-0.77696 -2.9249,-1.41265 -3.0712,-1.41265 -0.4424,0 0.1079,5.67397 0.5977,6.16385 0.3382,0.33818 0.4555,-0.13691 0.4555,-1.84517 0,-1.26533 0.091,-2.30061 0.2013,-2.30061 0.1107,0 1.4275,0.61519 2.9262,1.36708 3.7838,1.89835 5.5065,2.381 8.5602,2.39846 5.4945,0.0314 7.9808,-3.05105 9.645,-11.95729 0.6258,-3.34917 0.7148,-3.53728 1.5719,-3.32214 1.2002,0.30122 1.1607,-0.41081 -0.067,-1.2155 -0.6115,-0.40068 -1.6173,-0.59259 -2.693,-0.51382 -2.1212,0.15532 -2.5918,1.03165 -0.6497,1.2098 l 1.3819,0.12676 -0.5777,1.97157 c -0.4133,1.41039 -1.1819,2.57571 -2.7002,4.09405 -1.7845,1.78446 -2.4838,2.19748 -4.3909,2.5934 -3.6663,0.76113 -7.3438,-0.21902 -10.9517,-2.91896 -0.7213,-0.53978 -0.6038,-0.66187 1.8162,-1.88722 1.4232,-0.72056 3.3823,-1.97303 4.3537,-2.78328 0.9714,-0.81025 2.5152,-1.98431 3.4307,-2.60904 2.4009,-1.63833 3.8845,-3.36794 3.8845,-4.52881 0,-0.83388 0.1586,-0.97783 0.9081,-0.82411 0.4995,0.10243 1.6346,0.29642 2.5226,0.43108 2.9677,0.45007 5.5447,1.50486 7.0921,2.90283 1.9612,1.77181 2.1053,2.93514 1.6846,13.60072 -0.2892,7.33354 -0.3852,8.07362 -1.1158,8.59892 -0.4397,0.31612 -4.6136,3.10997 -9.2754,6.20855 -4.6617,3.09858 -8.8391,5.88592 -9.2831,6.19409 -0.7213,0.50064 -1.132,0.39245 -3.8568,-1.01598 z"
             style="fill:#d1b59b;fill-opacity:1;stroke:none;stroke-width:1;stroke-linecap:round;stroke-linejoin:miter;stroke-miterlimit:4;stroke-dasharray:none;stroke-opacity:1" />
          <path
             inkscape:connector-curvature="0"
             id="path4319"
             d="m 279.14996,287.54318 c 0,-0.60004 3.1852,-2.45 4.2188,-2.45034 0.4632,-1.5e-4 0.4696,0.0173 0.1401,0.38134 -0.643,0.71059 -4.3589,2.47434 -4.3589,2.069 z"
             style="fill:#e06e69;fill-opacity:1;stroke:none;stroke-width:1;stroke-linecap:round;stroke-linejoin:miter;stroke-miterlimit:4;stroke-dasharray:none;stroke-opacity:1" />
          <path
             inkscape:connector-curvature="0"
             id="path4321"
             d="m 283.06666,257.91582 c -1.2134,-1.39259 -1.5655,-2.50374 -1.5655,-4.94008 0,-1.97744 0.1788,-2.63349 0.9671,-3.54996 0.8455,-0.98294 1.1091,-1.07426 2.0976,-0.72662 1.2869,0.45256 2.3775,2.14322 2.7476,4.25931 0.2451,1.40113 0.2185,1.43943 -0.8856,1.27739 -1.431,-0.21003 -2.1834,0.6406 -2.4825,2.80675 -0.2132,1.54405 -0.2566,1.58723 -0.8787,0.87321 z"
             style="fill:#f1f1f1;fill-opacity:1;stroke:none;stroke-width:1;stroke-linecap:round;stroke-linejoin:miter;stroke-miterlimit:4;stroke-dasharray:none;stroke-opacity:1" />
          <path
             inkscape:connector-curvature="0"
             id="path4323"
             d="m 275.20216,257.56827 c -0.1976,-0.44398 -0.352,-2.12739 -0.3432,-3.74092 0.014,-2.63021 0.1274,-3.04521 1.0939,-4.01167 1.0526,-1.05263 1.0972,-1.06052 1.8982,-0.33563 0.8536,0.77251 1.6259,2.95514 1.6298,4.60601 0,0.80405 -0.094,0.87728 -0.6011,0.45677 -0.9221,-0.76526 -2.4519,0.43625 -2.9272,2.29904 -0.3423,1.34164 -0.4363,1.43258 -0.7504,0.7264 z"
             style="fill:#f1f1f1;fill-opacity:1;stroke:none;stroke-width:1;stroke-linecap:round;stroke-linejoin:miter;stroke-miterlimit:4;stroke-dasharray:none;stroke-opacity:1" />
        </g>
      </g>
    </g>
  </g>
</svg>
