<svg xmlns="http://www.w3.org/2000/svg" class="h-6 w-auto" viewBox="0 0 102 89"><g fill="none" fill-rule="evenodd" shape-rendering="crispEdges"><path fill="#b55608" d="M97.235 22.48h4.4v4.4h-4.4zm0-4.4h4.4v4.4h-4.4z"/><path fill="#c36f09" d="M97.235 13.68h4.4v4.4h-4.4zm0-4.4h4.4v4.4h-4.4zm0-4.41h4.4v4.4h-4.4z"/><path fill="#b55608" d="M92.825 26.89h4.4v4.4h-4.4z"/><path fill="#ffecad" d="M92.825 22.48h4.4v4.4h-4.4zm0-4.4h4.4v4.4h-4.4zm0-4.4h4.4v4.4h-4.4zm0-4.4h4.4v4.4h-4.4zm0-4.41h4.4v4.4h-4.4z"/><path fill="#c36f09" d="M92.825.47h4.4v4.4h-4.4zm-4.4 30.82h4.4v4.4h-4.4z"/><path fill="#ffd95c" d="M88.425 26.89h4.4v4.4h-4.4z"/><path fill="#ffc60a" d="M88.425 22.48h4.4v4.4h-4.4zm0-13.2h4.4v4.4h-4.4z"/><path fill="#ffecad" d="M88.425 4.87h4.4v4.4h-4.4z"/><path fill="#c36f09" d="M88.425.47h4.4v4.4h-4.4zm-4.4 35.22h4.4v4.4h-4.4z"/><path fill="#ffd95c" d="M84.025 31.29h4.4v4.4h-4.4z"/><path fill="#ffc60a" d="M84.025 26.89h4.4v4.4h-4.4z"/><path fill="#ffd95c" d="M84.025 9.28h4.4v4.4h-4.4z"/><path fill="#ffecad" d="M84.025 4.87h4.4v4.4h-4.4z"/><path fill="#b55608" d="M84.025.47h4.4v4.4h-4.4zm-4.4 35.22h4.4v4.4h-4.4z"/><path fill="#ffd95c" d="M79.625 31.29h4.4v4.4h-4.4zm0-17.61h4.4v4.4h-4.4zm0-4.4h4.4v4.4h-4.4z"/><path fill="#b55608" d="M79.625 4.87h4.4v4.4h-4.4z"/><path fill="#c36f09" d="M75.215 40.1h4.4v4.4h-4.4zm0-4.41h4.4v4.4h-4.4zm0-4.4h4.4v4.4h-4.4zm0-4.4h4.4v4.4h-4.4zm0-4.41h4.4v4.4h-4.4zm0-4.4h4.4v4.4h-4.4zm0-4.4h4.4v4.4h-4.4zm0-4.4h4.4v4.4h-4.4zm0-4.41h4.4v4.4h-4.4z"/><path fill="#710000" d="M70.815 84.13h4.4v4.4h-4.4zm0-4.41h4.4v4.4h-4.4z"/><path fill="#c36f09" d="M70.815 44.5h4.4v4.4h-4.4z"/><path fill="#ffe285" d="M70.815 40.1h4.4v4.4h-4.4zm0-4.41h4.4v4.4h-4.4zm0-4.4h4.4v4.4h-4.4z"/><path fill="#ffecad" d="M70.815 26.89h4.4v4.4h-4.4zm0-4.41h4.4v4.4h-4.4zm0-4.4h4.4v4.4h-4.4zm0-4.4h4.4v4.4h-4.4zm0-4.4h4.4v4.4h-4.4zm0-4.41h4.4v4.4h-4.4z"/><path fill="#c36f09" d="M70.815.47h4.4v4.4h-4.4z"/><path fill="#710000" d="M66.415 84.13h4.4v4.4h-4.4z"/><path fill="#a63c06" d="M66.415 79.72h4.4v4.4h-4.4z"/><path fill="#710000" d="M66.415 75.32h4.4v4.4h-4.4z"/><path fill="#b55608" d="M66.415 48.9h4.4v4.4h-4.4z"/><path fill="#ffe285" d="M66.415 44.5h4.4v4.4h-4.4zm0-4.4h4.4v4.4h-4.4zm0-4.41h4.4v4.4h-4.4zm0-4.4h4.4v4.4h-4.4zm0-4.4h4.4v4.4h-4.4zm0-4.41h4.4v4.4h-4.4zm0-4.4h4.4v4.4h-4.4zm0-4.4h4.4v4.4h-4.4zm0-4.4h4.4v4.4h-4.4z"/><path fill="#ffecad" d="M66.415 4.87h4.4v4.4h-4.4z"/><path fill="#c36f09" d="M66.415.47h4.4v4.4h-4.4z"/><path fill="#710000" d="M62.005 84.13h4.4v4.4h-4.4z"/><path fill="#a63c06" d="M62.005 79.72h4.4v4.4h-4.4z"/><path fill="#da914d" d="M62.005 75.32h4.4v4.4h-4.4z"/><path fill="#710000" d="M62.005 70.92h4.4v4.4h-4.4z"/><path fill="#b55608" d="M62.005 53.31h4.4v4.4h-4.4z"/><path fill="#ffe285" d="M62.005 48.9h4.4v4.4h-4.4zm0-4.4h4.4v4.4h-4.4zm0-4.4h4.4v4.4h-4.4zm0-4.41h4.4v4.4h-4.4zm0-4.4h4.4v4.4h-4.4zm0-4.4h4.4v4.4h-4.4zm0-4.41h4.4v4.4h-4.4zm0-4.4h4.4v4.4h-4.4zm0-4.4h4.4v4.4h-4.4zm0-4.4h4.4v4.4h-4.4zm0-4.41h4.4v4.4h-4.4z"/><path fill="#c36f09" d="M62.005.47h4.4v4.4h-4.4z"/><path fill="#710000" d="M57.605 84.13h4.4v4.4h-4.4z"/><path fill="#c36f09" d="M57.605 79.72h4.4v4.4h-4.4z"/><path fill="#da914d" d="M57.605 75.32h4.4v4.4h-4.4z"/><path fill="#710000" d="M57.605 70.92h4.4v4.4h-4.4z"/><path fill="#b55608" d="M57.605 66.52h4.4v4.4h-4.4zm0-4.41h4.4v4.4h-4.4zm0-4.4h4.4v4.4h-4.4zm0-4.4h4.4v4.4h-4.4z"/><path fill="#ffe285" d="M57.605 48.9h4.4v4.4h-4.4zm0-4.4h4.4v4.4h-4.4zm0-4.4h4.4v4.4h-4.4zm0-4.41h4.4v4.4h-4.4zm0-4.4h4.4v4.4h-4.4zm0-4.4h4.4v4.4h-4.4zm0-4.41h4.4v4.4h-4.4zm0-4.4h4.4v4.4h-4.4zm0-4.4h4.4v4.4h-4.4zm0-4.4h4.4v4.4h-4.4zm0-4.41h4.4v4.4h-4.4z"/><path fill="#c36f09" d="M57.605.47h4.4v4.4h-4.4z"/><path fill="#710000" d="M53.205 84.13h4.4v4.4h-4.4z"/><path fill="#da914d" d="M53.205 79.72h4.4v4.4h-4.4z"/><path fill="#c36f09" d="M53.205 75.32h4.4v4.4h-4.4z"/><path fill="#710000" d="M53.205 70.92h4.4v4.4h-4.4z"/><path fill="#ffe285" d="M53.205 66.52h4.4v4.4h-4.4zm0-4.41h4.4v4.4h-4.4zm0-4.4h4.4v4.4h-4.4z"/><path fill="#b55608" d="M53.205 53.31h4.4v4.4h-4.4z"/><path fill="#ffd95c" d="M53.205 48.9h4.4v4.4h-4.4zm0-4.4h4.4v4.4h-4.4zm0-4.4h4.4v4.4h-4.4zm0-4.41h4.4v4.4h-4.4zm0-4.4h4.4v4.4h-4.4zm0-4.4h4.4v4.4h-4.4zm0-4.41h4.4v4.4h-4.4zm0-4.4h4.4v4.4h-4.4zm0-4.4h4.4v4.4h-4.4zm0-4.4h4.4v4.4h-4.4zm0-4.41h4.4v4.4h-4.4z"/><path fill="#b55608" d="M53.205.47h4.4v4.4h-4.4z"/><path fill="#710000" d="M48.795 84.13h4.4v4.4h-4.4z"/><path fill="#da914d" d="M48.795 79.72h4.4v4.4h-4.4z"/><path fill="#c36f09" d="M48.795 75.32h4.4v4.4h-4.4z"/><path fill="#710000" d="M48.795 70.92h4.4v4.4h-4.4z"/><path fill="#ffd95c" d="M48.795 66.52h4.4v4.4h-4.4zm0-4.41h4.4v4.4h-4.4zm0-4.4h4.4v4.4h-4.4z"/><path fill="#b55608" d="M48.795 53.31h4.4v4.4h-4.4z"/><path fill="#ffd95c" d="M48.795 48.9h4.4v4.4h-4.4zm0-4.4h4.4v4.4h-4.4zm0-4.4h4.4v4.4h-4.4zm0-4.41h4.4v4.4h-4.4zm0-4.4h4.4v4.4h-4.4zm0-4.4h4.4v4.4h-4.4zm0-4.41h4.4v4.4h-4.4zm0-4.4h4.4v4.4h-4.4zm0-4.4h4.4v4.4h-4.4zm0-4.4h4.4v4.4h-4.4zm0-4.41h4.4v4.4h-4.4z"/><path fill="#b55608" d="M48.795.47h4.4v4.4h-4.4z"/><path fill="#710000" d="M44.395 84.13h4.4v4.4h-4.4z"/><path fill="#da914d" d="M44.395 79.72h4.4v4.4h-4.4z"/><path fill="#c36f09" d="M44.395 75.32h4.4v4.4h-4.4z"/><path fill="#710000" d="M44.395 70.92h4.4v4.4h-4.4z"/><path fill="#ffcf33" d="M44.395 66.52h4.4v4.4h-4.4zm0-4.41h4.4v4.4h-4.4zm0-4.4h4.4v4.4h-4.4z"/><path fill="#b55608" d="M44.395 53.31h4.4v4.4h-4.4z"/><path fill="#ffd95c" d="M44.395 48.9h4.4v4.4h-4.4zm0-4.4h4.4v4.4h-4.4zm0-4.4h4.4v4.4h-4.4zm0-4.41h4.4v4.4h-4.4zm0-4.4h4.4v4.4h-4.4zm0-4.4h4.4v4.4h-4.4zm0-4.41h4.4v4.4h-4.4zm0-4.4h4.4v4.4h-4.4zm0-4.4h4.4v4.4h-4.4zm0-4.4h4.4v4.4h-4.4zm0-4.41h4.4v4.4h-4.4z"/><path fill="#b55608" d="M44.395.47h4.4v4.4h-4.4z"/><path fill="#710000" d="M39.995 84.13h4.4v4.4h-4.4z"/><path fill="#c36f09" d="M39.995 79.72h4.4v4.4h-4.4z"/><path fill="#da914d" d="M39.995 75.32h4.4v4.4h-4.4z"/><path fill="#710000" d="M39.995 70.92h4.4v4.4h-4.4z"/><path fill="#b55608" d="M39.995 66.52h4.4v4.4h-4.4zm0-4.41h4.4v4.4h-4.4zm0-4.4h4.4v4.4h-4.4zm0-4.4h4.4v4.4h-4.4z"/><path fill="#ffcf33" d="M39.995 48.9h4.4v4.4h-4.4zm0-4.4h4.4v4.4h-4.4zm0-4.4h4.4v4.4h-4.4zm0-4.41h4.4v4.4h-4.4zm0-4.4h4.4v4.4h-4.4zm0-4.4h4.4v4.4h-4.4zm0-4.41h4.4v4.4h-4.4zm0-4.4h4.4v4.4h-4.4zm0-4.4h4.4v4.4h-4.4zm0-4.4h4.4v4.4h-4.4zm0-4.41h4.4v4.4h-4.4z"/><path fill="#b55608" d="M39.995.47h4.4v4.4h-4.4z"/><path fill="#710000" d="M35.585 84.13h4.4v4.4h-4.4z"/><path fill="#a63c06" d="M35.585 79.72h4.4v4.4h-4.4z"/><path fill="#da914d" d="M35.585 75.32h4.4v4.4h-4.4z"/><path fill="#710000" d="M35.585 70.92h4.4v4.4h-4.4z"/><path fill="#b55608" d="M35.585 53.31h4.4v4.4h-4.4z"/><path fill="#ffc60a" d="M35.585 48.9h4.4v4.4h-4.4zm0-4.4h4.4v4.4h-4.4z"/><path fill="#ffcf33" d="M35.585 40.1h4.4v4.4h-4.4zm0-4.41h4.4v4.4h-4.4zm0-4.4h4.4v4.4h-4.4zm0-4.4h4.4v4.4h-4.4zm0-4.41h4.4v4.4h-4.4zm0-4.4h4.4v4.4h-4.4zm0-4.4h4.4v4.4h-4.4zm0-4.4h4.4v4.4h-4.4zm0-4.41h4.4v4.4h-4.4z"/><path fill="#b55608" d="M35.585.47h4.4v4.4h-4.4z"/><path fill="#710000" d="M31.185 84.13h4.4v4.4h-4.4z"/><path fill="#a63c06" d="M31.185 79.72h4.4v4.4h-4.4z"/><path fill="#710000" d="M31.185 75.32h4.4v4.4h-4.4z"/><path fill="#b55608" d="M31.185 48.9h4.4v4.4h-4.4z"/><path fill="#ffc60a" d="M31.185 44.5h4.4v4.4h-4.4zm0-4.4h4.4v4.4h-4.4zm0-4.41h4.4v4.4h-4.4zm0-4.4h4.4v4.4h-4.4z"/><path fill="#ffcf33" d="M31.185 26.89h4.4v4.4h-4.4zm0-4.41h4.4v4.4h-4.4zm0-4.4h4.4v4.4h-4.4zm0-4.4h4.4v4.4h-4.4zm0-4.4h4.4v4.4h-4.4zm0-4.41h4.4v4.4h-4.4z"/><path fill="#b55608" d="M31.185.47h4.4v4.4h-4.4z"/><path fill="#710000" d="M26.785 84.13h4.4v4.4h-4.4zm0-4.41h4.4v4.4h-4.4z"/><path fill="#b55608" d="M26.785 44.5h4.4v4.4h-4.4z"/><path fill="#ffc60a" d="M26.785 40.1h4.4v4.4h-4.4zm0-4.41h4.4v4.4h-4.4zm0-4.4h4.4v4.4h-4.4zm0-4.4h4.4v4.4h-4.4zm0-4.41h4.4v4.4h-4.4zm0-4.4h4.4v4.4h-4.4z"/><path fill="#ffcf33" d="M26.785 13.68h4.4v4.4h-4.4zm0-4.4h4.4v4.4h-4.4zm0-4.41h4.4v4.4h-4.4z"/><path fill="#b55608" d="M26.785.47h4.4v4.4h-4.4zm-4.4 39.63h4.4v4.4h-4.4zm0-4.41h4.4v4.4h-4.4zm0-4.4h4.4v4.4h-4.4zm0-4.4h4.4v4.4h-4.4zm0-4.41h4.4v4.4h-4.4zm0-4.4h4.4v4.4h-4.4zm0-4.4h4.4v4.4h-4.4zm0-4.4h4.4v4.4h-4.4z"/><path fill="#c36f09" d="M22.385 4.87h4.4v4.4h-4.4z"/><path fill="#b55608" d="M17.975 35.69h4.4v4.4h-4.4z"/><path fill="#ffcf33" d="M17.975 31.29h4.4v4.4h-4.4zm0-17.61h4.4v4.4h-4.4z"/><path fill="#ffe285" d="M17.975 9.28h4.4v4.4h-4.4z"/><path fill="#c36f09" d="M17.975 4.87h4.4v4.4h-4.4z"/><path fill="#b55608" d="M13.575 35.69h4.4v4.4h-4.4z"/><path fill="#ffc60a" d="M13.575 31.29h4.4v4.4h-4.4z"/><path fill="#ffe285" d="M13.575 26.89h4.4v4.4h-4.4z"/><path fill="#ffcf33" d="M13.575 9.28h4.4v4.4h-4.4z"/><path fill="#ffe285" d="M13.575 4.87h4.4v4.4h-4.4z"/><path fill="#c36f09" d="M13.575.47h4.4v4.4h-4.4z"/><path fill="#b55608" d="M9.175 31.29h4.4v4.4h-4.4z"/><path fill="#ffc60a" d="M9.175 26.89h4.4v4.4h-4.4z"/><path fill="#ffe285" d="M9.175 22.48h4.4v4.4h-4.4z"/><path fill="#ffcf33" d="M9.175 9.28h4.4v4.4h-4.4z"/><path fill="#ffe285" d="M9.175 4.87h4.4v4.4h-4.4z"/><path fill="#c36f09" d="M9.175.47h4.4v4.4h-4.4z"/><path fill="#b55608" d="M4.765 26.89h4.4v4.4h-4.4z"/><path fill="#ffc60a" d="M4.765 22.48h4.4v4.4h-4.4z"/><path fill="#ffcf33" d="M4.765 18.08h4.4v4.4h-4.4zm0-4.4h4.4v4.4h-4.4zm0-4.4h4.4v4.4h-4.4z"/><path fill="#ffe285" d="M4.765 4.87h4.4v4.4h-4.4z"/><path fill="#b55608" d="M4.765.47h4.4v4.4h-4.4zm-4.4 22.01h4.4v4.4h-4.4zm0-4.4h4.4v4.4h-4.4zm0-4.4h4.4v4.4h-4.4zm0-4.4h4.4v4.4h-4.4zm0-4.41h4.4v4.4h-4.4z"/></g></svg>