<svg xmlns="http://www.w3.org/2000/svg" width="316.4" height="316.1" viewBox="0 0 986.2 985.5"><script/><g fill="#232323"><path d="M292 95h403l7 181v7h71c19 1 35 17 36 36 1 8 1 16-2 23a39 39 0 0 1-25 24c-6 2-12 2-18 2h-59l1 8v4l-9-1-10-274H300l-11 274-8 1v-12h-67c-19-1-35-16-37-35-1-9-1-19 3-27a39 39 0 0 1 27-22l16-1h61l1-7 7-181z"/><path d="M475 372a132 132 0 0 1 72 7c5 2 9 6 14 6h125c16 0 32 3 45 12a49 49 0 0 1 19 28l9 40c15 4 30 10 38 22 5 6 6 14 9 21l38 112a111 111 0 0 1 5 45c-2 14-8 29-20 38a83 83 0 0 1-51 17H221c-19 0-40-1-57-12-13-7-22-21-25-36-5-19-2-40 5-59l41-119c7-17 25-25 42-29l9-39a51 51 0 0 1 7-16c11-17 33-25 53-25h140c5 0 9-4 14-6l25-7m-47 33a116 116 0 0 0-41 63h91l21-37 21 37h91a116 116 0 0 0-115-87 115 115 0 0 0-68 24m-140-2-2 65h88a129 129 0 0 1 48-72H316a64 64 0 0 0-28 7m288-7a129 129 0 0 1 47 72h78l-3-68a69 69 0 0 0-26-4h-96m131 8 2 64h20v-30c-1-14-10-27-22-34m-443 39 1 25h12l3-59c-10 8-16 21-16 35m223 24h23l-11-20-12 20m-244 29c-14 3-29 10-38 23-4 6-4 15-4 23 2 10 10 18 19 24 16 9 35 12 54 11 4-7 11-12 18-17l11-5c-10 5-20 11-26 21-3 7-3 14-3 21 1 5 4 10 7 15-21-4-43-3-63 6-11 6-21 14-23 27-1 7-1 16 3 22 7 12 20 18 32 22a105 105 0 0 0 66-2c11-4 22-11 28-22 2-6 2-12 2-18a27 27 0 0 0-6-15c-7-9-17-14-27-18a66 66 0 0 1 29 17 108 108 0 0 0 29 1 60 60 0 0 1 27-16c-11 4-22 10-27 21-4 6-3 13-3 20 1 11 9 19 18 24 16 10 35 13 53 12 16-1 32-5 46-14 7-5 13-13 14-22 0-7 1-14-3-20-5-11-16-17-27-22a65 65 0 0 1 25 15c1 2 3 2 4 2a108 108 0 0 0 26 0 60 60 0 0 1 27-17c-13 5-26 14-30 28-1 8-1 18 4 25 8 12 21 18 35 22 20 5 43 4 63-3 11-5 22-12 27-23 2-5 2-11 2-17a27 27 0 0 0-6-15c-6-8-15-13-24-16a66 66 0 0 1 26 15 98 98 0 0 0 29 1 61 61 0 0 1 27-17c-13 5-27 14-30 28-1 8-1 17 3 24 7 11 19 18 31 22a106 106 0 0 0 63-1c12-4 24-10 31-21 4-7 3-15 3-23-2-11-12-19-21-24-18-10-39-12-58-10 3-5 6-10 6-17 0-6 0-12-4-18-6-10-17-17-28-21 13 4 25 11 32 22 20 3 42 0 60-10 9-5 17-13 19-24 1-8 1-16-3-23-8-12-21-18-34-22a109 109 0 0 0-62 2c-11 4-23 11-29 22-3 6-3 13-3 20l3 9a118 118 0 0 0-27 0c2-5 3-11 3-17 0-7-3-14-8-19a67 67 0 0 0-37-19c-19-3-40-2-58 5-11 4-22 11-27 22-2 6-2 12-2 17 0 4 2 8 3 11a118 118 0 0 0-27 0c3-7 3-14 2-21-1-10-9-18-17-23-15-9-32-13-49-13-17 1-35 4-50 14-8 6-15 16-15 26 0 6 0 12 3 17a117 117 0 0 0-27 0c3-7 3-14 2-21-2-13-13-22-24-27-20-9-43-11-65-6z"/><path d="M201 377h60a52 52 0 0 1 10 1h-45c-18 2-37 9-50 23a77 77 0 0 0-20 38l-10 52-2 8c-17 5-34 13-46 28-6 8-10 18-12 27L38 718l-8 27c-4 22-5 44-1 66 3 16 9 33 20 45s26 20 41 24a140 140 0 0 0 35 5h736c19 0 39-4 56-13a75 75 0 0 0 30-31c9-17 13-36 13-55a209 209 0 0 0-5-43l-6-24-49-165c-3-13-9-25-18-34a89 89 0 0 0-38-20c-3 0-2-3-3-4l-10-50c-2-16-9-32-20-44a78 78 0 0 0-44-23c-9-2-19-1-28-1h-24a55 55 0 0 1 7-1l63 1a80 80 0 0 1 33 22c9 10 14 22 18 34l12 60c16 5 31 13 43 26 8 9 13 20 15 32l49 164 8 30c4 24 5 49 0 73-5 18-14 36-28 48-15 13-35 20-54 23l-37 1H128c-21 0-43-3-62-13a82 82 0 0 1-34-35c-9-19-12-40-12-61a204 204 0 0 1 9-59l51-171a68 68 0 0 1 19-36c11-11 25-17 39-22l10-48c3-16 8-32 19-45 9-11 21-19 34-24z"/><path d="M374 556c12 3 25 11 32 21a120 120 0 0 0 21 1c4-7 11-12 18-16l11-6c-10 5-20 11-26 22-3 6-3 13-2 20 0 5 3 10 6 15a117 117 0 0 0-34-2c3-4 5-8 6-13 0-7 0-14-3-20-6-12-18-18-29-22zM527 556c13 3 25 11 32 21a120 120 0 0 0 21 1c4-7 11-12 18-16l11-6c-9 5-18 10-24 18-4 6-5 13-5 19 0 7 3 14 7 20a117 117 0 0 0-34-2c3-4 5-8 6-13 0-7 0-14-3-20-6-12-18-18-29-22z"/></g><g fill="#fff"><path d="m289 379 11-274h387l10 274H547a132 132 0 0 0-72-7l-25 7H289z"/><path d="m271 378 10-2-1 4a83 83 0 0 0-23 8 55 55 0 0 0-25 27l-6 21-6 24a88 88 0 0 0-22 10c-11 6-20 17-23 29l-34 102c-4 11-8 21-10 32-3 20-2 42 8 60 9 15 24 25 41 29 18 5 38 4 57 4h538c19 0 38-4 54-14a61 61 0 0 0 25-37c5-18 3-37-2-55l-41-121c-3-12-12-23-23-29-7-5-15-7-22-10l-9-36a55 55 0 0 0-14-26 69 69 0 0 0-37-18v-4l9 2h2l8 3c14 5 26 14 33 27 5 9 6 19 8 29l5 22c15 4 30 11 39 24 5 7 7 15 10 23l34 101c3 8 6 16 7 24 4 18 5 38-2 55a61 61 0 0 1-28 32c-16 9-34 11-52 11H214c-20 1-40-1-58-11a62 62 0 0 1-30-36c-6-19-5-41 1-61l45-130c7-18 25-28 43-32l9-40c5-18 20-32 38-38l7-3z"/><path d="M288 403a64 64 0 0 1 28-7h106a129 129 0 0 0-48 72h-88l2-65zM576 396h96a69 69 0 0 1 26 4l3 68h-78a129 129 0 0 0-47-72zM448 434a81 81 0 0 1 102 0 82 82 0 0 1 24 34h-54l-21-37-21 37h-55a81 81 0 0 1 25-34zM876 757c11-15 16-34 18-52 3 20 3 42-5 61-5 12-15 23-28 28-12 5-26 3-39 3H147c-14 1-29-4-39-15a78 78 0 0 1-17-49 144 144 0 0 1 1-28c2 19 8 38 19 54 9 12 23 21 38 22h678l17-1c13-4 25-12 32-23z"/></g><g fill="#9e9e9e"><path d="M155 307c5-19 24-32 44-31h86l-1 7h-61l-16 1a39 39 0 0 0-27 22c-4 8-4 18-3 27 2 19 19 34 37 35h67v12l8-1h161c-4 2-9 6-14 6H296c-20 0-42 7-53 25a51 51 0 0 0-7 16l-9 39c-17 4-35 12-42 29l-41 119c-7 19-9 40-5 59 3 15 12 29 25 36 17 11 38 12 57 12h557c18-1 37-5 51-17 12-9 18-24 20-38a111 111 0 0 0-5-45l-38-112c-3-7-4-15-9-21-8-12-23-18-38-22l-9-40a49 49 0 0 0-19-28c-13-9-29-12-45-12H561c-5-1-9-4-14-6h150l9 1c14 3 27 8 37 18a55 55 0 0 1 14 26l9 36c7 3 15 5 22 10 11 6 20 17 23 29l41 121c5 18 7 37 2 55a61 61 0 0 1-25 37 98 98 0 0 1-54 14H237c-19 0-38 1-57-4-16-4-32-14-41-29a87 87 0 0 1-8-60c2-11 6-21 10-32l34-102c3-12 12-23 23-29a88 88 0 0 1 22-10l6-24 6-21a55 55 0 0 1 26-27 83 83 0 0 1 22-8l1-4-10 2a52 52 0 0 0-10-1h-60c-12 1-25-3-34-12a44 44 0 0 1-14-33c1-8 0-16 2-25zM702 276h88c18 0 35 13 41 30 3 9 2 18 2 27a44 44 0 0 1-18 36c-9 6-19 9-30 8h-63a55 55 0 0 0-7 1l-9-2-1-8h59c6 0 12 0 18-2a39 39 0 0 0 25-24c3-7 3-16 2-23-1-19-17-35-36-36h-71v-7z"/><path d="M428 405a116 116 0 0 1 152 9 116 116 0 0 1 31 54h-37a82 82 0 0 0-24-34 81 81 0 0 0-127 34h-36a116 116 0 0 1 41-63zM707 404c12 7 21 20 22 34v30h-20l-2-64zM264 443c0-13 6-26 16-34l-3 59h-12l-1-25z"/><path d="m487 468 12-20 11 20h-23z"/></g><path fill="#002baf" d="M176 401c13-14 32-21 50-23h43l-7 3c-18-1-37 6-50 18l-13 14c-12 9-19 23-22 38l-8 36c0 2-2 2-3 3-11 5-21 12-27 21a17 17 0 0 1-5 5 54 54 0 0 0-19 23l-4 14-45 140-7 26c-4 19-5 39-1 58 3 16 10 31 22 41 13 12 30 18 48 21 12 2 25 1 37 1h669c17 0 34-1 50-8 12-5 24-13 31-24 10-14 15-31 16-47a162 162 0 0 0-6-53l-49-154-4-14a53 53 0 0 0-17-22 18 18 0 0 1-5-5c-8-12-20-20-33-25l-8-38a68 68 0 0 0-15-30l-10-11c-8-12-20-20-34-25-8-2-16-4-25-3l-8-3h22c9 0 19-1 28 1 17 3 33 11 44 23s18 28 20 44l10 49c1 2 1 5 3 5 14 4 27 10 38 20 9 9 15 21 18 34l49 165 6 23a209 209 0 0 1 5 43c0 19-3 39-12 56a75 75 0 0 1-31 31c-17 9-37 13-56 13H125a140 140 0 0 1-35-5c-15-4-30-12-41-24a91 91 0 0 1-20-45c-4-22-3-44 1-66l8-27 48-164c2-9 6-19 12-27 12-15 29-23 46-28l2-8 10-52c3-14 10-28 20-38M42 775c-3 21-2 43 6 63 6 13 17 24 30 29 10 3 21 4 31 4h774c14 0 28-4 39-12 11-9 17-21 21-34 4-16 4-33 1-50-3 21-9 41-23 57a61 61 0 0 1-41 22H106c-8-1-17-4-24-8-14-8-24-21-31-36-5-11-7-23-9-35z"/><path fill="#2ab4eb" d="M212 399c13-12 32-19 50-18-18 6-33 20-38 38l-9 40c-18 4-36 14-43 32l-45 130c-6 20-7 42-1 61a62 62 0 0 0 30 36c18 10 38 12 58 11h565c18 0 36-2 52-11a61 61 0 0 0 28-32c7-17 6-37 3-55l-8-24-34-101c-3-8-5-16-10-23-9-13-24-20-39-24l-5-22c-2-10-4-20-8-29-7-13-19-22-33-27 9-1 17 1 25 3 14 5 26 13 34 25l10 11a68 68 0 0 1 15 30l8 38c13 5 25 13 33 25a18 18 0 0 0 5 5 53 53 0 0 1 17 22l4 14 49 154a162 162 0 0 1 6 53c-1 16-6 33-16 47-7 11-19 19-31 24-16 7-33 8-50 8H165c-12 0-25 1-37-1-17-3-35-9-48-21a75 75 0 0 1-22-41c-4-19-3-39 1-58l7-26 45-140 4-14a54 54 0 0 1 19-23 17 17 0 0 0 5-5c6-9 16-16 27-21 1-1 3-1 3-3l8-36c3-15 10-29 22-38l13-14m664 358c-7 11-19 19-32 23l-17 1H149c-15-2-29-10-38-23-11-15-17-34-19-53a144 144 0 0 0-1 28c1 18 5 36 17 49 10 11 25 16 39 15h675c13 0 27 2 39-3 13-5 23-16 28-28 8-19 8-41 6-61-3 18-8 37-19 52z"/><path fill="#e27a0a" d="M243 497c22-5 45-3 66 6 10 5 21 14 23 27 1 7 1 14-2 21a117 117 0 0 1 27 1c-3-6-3-12-3-17 0-11 7-21 15-26 15-11 33-14 50-14s34 3 49 12c8 5 16 13 17 23 1 7 1 14-2 21a118 118 0 0 1 27 1l-3-11c0-6 0-12 2-17 5-11 16-18 27-23 18-7 39-8 58-4 14 2 28 8 37 18 5 6 8 12 8 20 0 5-1 11-3 16a118 118 0 0 1 27 1l-3-10c0-7 0-14 3-20 6-11 18-18 29-22a109 109 0 0 1 62-2c13 4 26 10 34 22 4 7 4 16 3 23-2 11-10 19-19 24a99 99 0 0 1-60 10c-7-10-19-18-32-21 11 4 22 10 28 20 4 6 4 12 4 19 0 6-2 12-6 16 20-2 40 0 58 10 9 5 19 13 21 24 0 8 1 16-3 23-7 11-19 18-31 22a106 106 0 0 1-63 0c-12-4-24-11-31-22-4-7-4-16-3-24 3-14 17-23 30-28a61 61 0 0 0-27 17 98 98 0 0 1-29-1 66 66 0 0 0-26-15c9 3 18 8 24 16a27 27 0 0 1 6 15c0 6 1 12-2 17-5 11-16 18-27 23-20 7-43 8-63 3-14-4-27-10-35-22-5-7-5-17-4-25 4-14 17-23 30-28a60 60 0 0 0-27 17 108 108 0 0 1-26 0c-1 0-3 0-4-2a65 65 0 0 0-25-15c11 5 22 11 27 22 4 6 3 13 3 20-1 9-7 17-14 22-14 9-30 13-46 14-18 1-38-2-54-12-8-5-16-13-17-24-1-7-1-14 2-20 6-11 17-17 28-21a60 60 0 0 0-27 16 108 108 0 0 1-29-1 66 66 0 0 0-29-16c10 3 21 8 27 17a27 27 0 0 1 6 15c0 6 0 12-2 18-6 11-17 18-28 22a105 105 0 0 1-66 2c-12-4-25-10-32-22-4-6-4-15-3-22 2-13 13-21 23-27 20-9 42-10 63-6-3-5-6-10-6-15-1-7-1-14 2-20 6-11 16-17 27-22 8-2 16-8 21-16a20 20 0 0 0-1-20c-5-8-14-13-23-17-16-6-35-7-52-4-13 2-25 7-35 16-5 5-9 14-6 22 3 9 12 16 21 20 20 8 42 9 63 4-7 5-14 10-18 17-19 1-38-2-54-11-9-6-17-14-18-24-1-8-1-16 3-23 9-13 24-20 38-23m128 15c-7 5-12 13-11 22 2 9 9 15 17 20 15 8 33 11 50 10l18-2c-7 4-14 9-18 16a120 120 0 0 1-21-1c-8-10-20-18-32-21 11 4 23 10 29 22 3 6 3 13 3 20-1 5-3 9-6 13a117 117 0 0 1 34 2c-3-5-6-10-6-15-1-7-1-14 2-20 6-11 16-17 26-22 5-1 9-3 13-6 7-5 12-13 11-22-2-10-10-16-18-21-15-8-34-11-52-9-14 1-28 5-40 14m192-14c-14 2-28 5-39 14-7 6-12 14-10 23s10 15 18 20c15 8 33 10 50 9l17-2c-7 4-14 9-18 16a120 120 0 0 1-21-1c-7-10-20-18-32-21 11 4 23 10 29 22 3 6 3 13 3 20-1 5-3 9-6 14a117 117 0 0 1 34 1c-4-6-7-12-7-20 0-6 1-13 5-18 6-9 15-14 24-19 9-2 17-7 21-15a20 20 0 0 0 1-19c-4-8-12-13-20-17-15-7-32-9-49-7m153 0c-14 2-29 5-40 15-6 5-11 13-9 22s11 16 19 20c17 9 37 10 55 8 13-2 27-6 38-15 6-5 10-14 8-22-3-9-11-15-19-20-16-8-34-10-52-8m-389 56c-13 2-26 6-37 15-6 5-10 13-9 21 3 10 10 16 18 20 16 9 35 11 53 9 14-1 28-5 39-14 7-5 12-14 10-22-2-10-11-17-19-21-17-8-36-10-55-8m153 0c-13 2-27 6-38 16-6 5-10 13-7 22 3 10 12 16 21 20 18 8 38 9 56 6 13-2 25-6 34-15 6-6 10-14 7-22-2-9-11-15-19-20-16-7-35-9-54-7m153 0c-14 2-28 6-39 17-6 5-9 14-6 22 4 10 14 16 23 20 17 7 36 8 55 5 12-2 25-7 34-16 6-6 9-14 6-22-3-9-11-15-20-19-16-7-35-9-53-7m-383 60c-15 2-29 6-40 15-6 6-10 14-8 23s11 16 20 20c17 8 36 9 55 7 13-2 26-6 36-15 6-5 10-13 8-21-2-10-10-16-18-20-17-9-35-11-53-9m153 0c-14 2-29 6-39 15-7 5-11 13-9 22 2 10 11 16 19 21 17 8 37 10 55 7 13-2 27-6 37-15 6-5 10-13 8-21-2-10-10-16-18-20-16-9-35-11-53-9m155 0c-14 1-28 5-39 13-7 5-12 13-12 22 1 9 9 16 16 20 15 9 32 12 49 11 15-1 31-4 44-13 7-5 13-13 11-23-1-9-9-16-17-21-16-8-35-10-52-9m153 0c-14 1-29 5-40 14-6 5-12 13-10 22 1 9 9 16 18 21 17 9 37 11 56 8 13-2 27-6 37-15 6-5 10-13 8-21-2-10-10-16-18-20-16-8-34-10-51-9z"/><g fill="#e5c507"><path d="M249 499c17-3 36-2 52 4 9 4 18 9 23 17a20 20 0 0 1 1 20c-5 8-13 14-22 16l-11 5c-21 4-43 4-63-4-9-4-18-11-21-20-3-8 0-17 6-22 10-9 22-14 35-16zM370 512c12-9 26-13 40-14 18-2 37 1 52 9 8 5 16 11 18 21 1 9-4 17-11 22-4 3-8 5-13 6l-11 6-18 2c-17 1-35-2-50-10-8-5-15-11-17-20-1-9 4-17 10-22zM562 498c17-2 34 0 49 7 8 4 16 9 20 17a20 20 0 0 1-1 19c-4 7-12 13-21 15l-11 6-17 2c-17 1-35-1-50-9-8-5-16-11-18-21-2-8 3-17 10-22 11-9 25-13 39-14zM715 498c18-2 36 0 52 8 8 5 16 11 18 20 3 8-2 17-8 22-10 9-24 13-37 15-19 2-38 0-55-8-8-4-17-11-19-21-2-8 3-16 9-21 12-10 26-14 40-15zM326 554c19-2 38 0 55 8 8 4 17 11 19 21 2 8-3 17-10 22-11 9-25 13-39 14-18 2-37 0-53-9-8-4-15-10-18-20-1-8 3-16 9-21 11-9 24-13 37-15zM479 554c19-2 38 0 54 8 8 4 17 10 19 19 3 8-1 16-7 22-9 9-21 13-34 15-18 3-38 2-56-6-9-4-18-10-21-20-3-8 1-17 7-22 11-10 25-14 38-16zM632 554c18-2 37 0 53 7 9 4 17 10 20 19 3 8 0 16-6 22-9 9-22 14-34 16-19 3-38 2-55-5-9-4-19-10-23-20-3-8 0-17 6-22 11-11 25-15 39-17zM249 614c18-2 36 0 53 9 8 4 16 10 18 20 2 8-2 16-8 21-10 9-23 13-36 15-19 3-38 1-55-7-9-4-18-11-20-20s2-17 8-23c11-9 25-13 40-15zM402 614c18-2 37 0 53 9 8 4 16 10 18 20 2 8-2 16-8 21-10 9-24 13-37 15-18 2-38 1-55-7-9-5-17-11-19-21-2-9 2-17 9-22 10-9 25-13 39-15zM556 614c18-1 37 1 53 9 8 5 16 12 17 21 1 10-5 18-12 23-12 9-28 12-43 13-17 1-34-2-49-11-7-4-15-11-16-20s5-17 12-22c11-8 25-12 38-13zM710 614c17-1 35 1 51 9 8 4 16 10 18 20 2 8-2 16-8 21-10 9-24 13-37 15-19 3-39 1-56-8-9-5-17-12-19-21-1-9 5-17 11-22 11-9 26-13 40-14z"/></g><path fill="#2371e2" d="M42 775c2 12 4 24 9 35 7 15 17 28 31 36 7 4 16 7 24 8h774c16-2 31-10 41-22 14-16 20-36 23-57 3 17 3 34-1 50-4 13-10 25-21 34-11 8-25 12-39 12H109c-10 0-21-1-31-4-14-5-24-16-30-29-8-20-9-42-6-63z"/><script/></svg>